<?xml version="1.0" encoding="UTF-8"?>
<!DOCTYPE svg PUBLIC "-//W3C//DTD SVG 1.1//EN" "http://www.w3.org/Graphics/SVG/1.1/DTD/svg11.dtd">
<!-- Creator: CorelDRAW -->
<svg xmlns="http://www.w3.org/2000/svg" xml:space="preserve" width="81.4008mm" height="23.7848mm" style="shape-rendering:geometricPrecision; text-rendering:geometricPrecision; image-rendering:optimizeQuality; fill-rule:evenodd; clip-rule:evenodd"
viewBox="0 0 81.7563 23.8887"
 xmlns:xlink="http://www.w3.org/1999/xlink">
 <defs>
  <style type="text/css">
   <![CDATA[
    .fil0 {fill:#DA251D}
    .fil2 {fill:white}
    .fil1 {fill:#1F1A17;fill-rule:nonzero}
   ]]>
  </style>
 </defs>
 <g id="Vrstva_x0020_1">
  <metadata id="CorelCorpID_0Corel-Layer"/>
  <polygon class="fil0" points="0,0.405162 23.3183,0.405162 23.3183,23.7235 0,23.7235 "/>
  <polygon class="fil1" points="26.94,23.6993 26.94,0.380957 36.6892,0.380957 36.6892,3.33259 31.2563,3.33259 31.2563,9.26097 36.6892,9.26097 36.6892,12.2381 31.2563,12.2381 31.2563,20.6723 36.6892,20.6723 36.6892,23.6993 "/>
  <polygon class="fil1" points="38.872,23.6993 38.872,0.380957 43.2128,0.380957 43.2128,20.6474 48.1496,20.6474 48.1496,23.6993 "/>
  <polygon class="fil1" points="47.1304,0.399738 50.853,0.399738 52.7316,18.1423 54.5756,0.399738 58.2635,0.399738 55.1666,23.6047 50.331,23.6047 "/>
  <path class="fil1" d="M63.7938 4.7134l-1.3566 9.67206 2.7135 0 -1.3569 -9.67206zm-1.80887 12.8032l-0.835031 6.08798 -3.72269 0 3.82714 -23.2049 5.07889 0 3.82744 23.2049 -3.72259 0 -0.835031 -6.08798 -3.61813 0z"/>
  <path class="fil1" d="M77.4154 15.7025l4.34098 0 0 2.70366c0,1.83588 -0.471149,3.20062 -1.38864,4.11811 -0.942599,0.917691 -2.33184,1.36443 -4.19303,1.36443 -1.86009,0 -3.24933,-0.446743 -4.16682,-1.36443 -0.918193,-0.91749 -1.38964,-2.28223 -1.38964,-4.11811l0 -12.8991c0,-1.83588 0.47145,-3.22442 1.38964,-4.14252 0.91749,-0.892883 2.30673,-1.36443 4.16682,-1.36443 1.86119,0 3.25044,0.471551 4.19303,1.38924 0.91749,0.917791 1.38864,2.28182 1.38864,4.11771l0 2.45638 -4.34098 0 0 -3.39898c0,-0.669813 -0.0987294,-1.09115 -0.272786,-1.31432 -0.198664,-0.24838 -0.521267,-0.34711 -0.967909,-0.34711 -0.470848,0 -0.793451,0.0987294 -0.966804,0.297393 -0.148948,0.223472 -0.247978,0.669411 -0.247978,1.36403l0 14.6852c0,0.694721 0.0990307,1.14197 0.247978,1.36403 0.173354,0.199367 0.495957,0.298599 0.966804,0.298599 0.446642,0 0.769245,-0.0992315 0.967909,-0.347612 0.174057,-0.22307 0.272786,-0.669712 0.272786,-1.31502l0 -3.54713z"/>
  <path class="fil2" d="M0.198262 12.0644l11.5106 -11.5105 6.9453 6.9216c-2.30703,2.30703 -4.61376,4.61336 -6.89559,6.9208l-2.30743 -2.30743 4.58926 -4.61336 -2.33154 -2.33234 -6.89649 6.9212 6.89649 6.89629 9.20272 -9.20302 2.30743 2.30673 -11.5102 11.5105 -11.5106 -11.5105z"/>
 </g>
</svg>
