<?xml version="1.0" encoding="UTF-8"?>
<!DOCTYPE svg PUBLIC "-//W3C//DTD SVG 1.1//EN" "http://www.w3.org/Graphics/SVG/1.1/DTD/svg11.dtd">
<!-- Creator: CorelDRAW X8 -->
<svg xmlns="http://www.w3.org/2000/svg" xml:space="preserve" width="55mm" height="16.0708mm" version="1.1" style="shape-rendering:geometricPrecision; text-rendering:geometricPrecision; image-rendering:optimizeQuality; fill-rule:evenodd; clip-rule:evenodd"
viewBox="0 0 5524 1614"
 xmlns:xlink="http://www.w3.org/1999/xlink">
 <defs>
  <style type="text/css">
   <![CDATA[
    .fil0 {fill:#FEFEFE}
    .fil1 {fill:#FEFEFE;fill-rule:nonzero}
   ]]>
  </style>
 </defs>
 <g id="Vrstva_x0020_1">
  <metadata id="CorelCorpID_0Corel-Layer"/>
  <path class="fil0" d="M0 27l1576 0 0 1576 -1576 0 0 -1576zm13 788l778 -778 469 468c-155,156 -311,312 -466,468l-155 -156 310 -312 -158 -157 -466 467 466 466 622 -622 156 156 -778 778 -778 -778z"/>
  <polygon class="fil1" points="1820,1601 1820,26 2479,26 2479,225 2112,225 2112,626 2479,626 2479,827 2112,827 2112,1397 2479,1397 2479,1601 "/>
  <polygon class="fil1" points="2626,1601 2626,26 2920,26 2920,1395 3253,1395 3253,1601 "/>
  <polygon class="fil1" points="3184,27 3436,27 3563,1226 3687,27 3937,27 3727,1595 3401,1595 "/>
  <path class="fil1" d="M4310 318l-91 654 183 0 -92 -654zm-122 866l-56 411 -252 0 259 -1568 343 0 258 1568 -251 0 -56 -411 -245 0z"/>
  <path class="fil1" d="M5231 1061l293 0 0 183c0,124 -32,216 -94,278 -64,62 -157,92 -283,92 -126,0 -220,-30 -282,-92 -62,-62 -94,-154 -94,-278l0 -872c0,-124 32,-218 94,-280 62,-60 156,-92 282,-92 126,0 219,32 283,94 62,62 94,154 94,278l0 166 -293 0 0 -230c0,-45 -7,-73 -19,-88 -13,-17 -35,-24 -65,-24 -32,0 -54,7 -66,20 -10,15 -16,45 -16,92l0 993c0,47 6,77 16,92 12,13 34,20 66,20 30,0 52,-7 65,-24 12,-15 19,-45 19,-88l0 -240z"/>
 </g>
</svg>
